<mxfile host="app.diagrams.net" agent="Mozilla/5.0 (Windows NT 10.0; Win64; x64) AppleWebKit/537.36 (KHTML, like Gecko) Chrome/126.0.0.0 Safari/537.36 OPR/112.0.0.0" version="24.7.5">
  <diagram name="Página-1" id="b1sYPnzLUWa_yT83Qr-i">
    <mxGraphModel dx="4120" dy="2912" grid="1" gridSize="10" guides="1" tooltips="1" connect="1" arrows="1" fold="1" page="1" pageScale="1" pageWidth="827" pageHeight="1169" math="0" shadow="0">
      <root>
        <mxCell id="0" />
        <mxCell id="1" parent="0" />
        <mxCell id="ePeYQSC2RN0oUBqZMHCl-1" value="Usuario" style="shape=umlActor;verticalLabelPosition=bottom;verticalAlign=top;html=1;" vertex="1" parent="1">
          <mxGeometry x="150" y="-590" width="30" height="60" as="geometry" />
        </mxCell>
        <mxCell id="ePeYQSC2RN0oUBqZMHCl-2" value="" style="html=1;whiteSpace=wrap;" vertex="1" parent="1">
          <mxGeometry x="217" y="-800" width="393" height="440" as="geometry" />
        </mxCell>
        <mxCell id="ePeYQSC2RN0oUBqZMHCl-6" value="Modulo de ingreso" style="text;html=1;align=center;verticalAlign=middle;resizable=0;points=[];autosize=1;strokeColor=none;fillColor=none;" vertex="1" parent="1">
          <mxGeometry x="343" y="-830" width="120" height="30" as="geometry" />
        </mxCell>
        <mxCell id="ePeYQSC2RN0oUBqZMHCl-7" value="Registrarse en el sistema" style="ellipse;whiteSpace=wrap;html=1;" vertex="1" parent="1">
          <mxGeometry x="248" y="-760" width="117" height="80" as="geometry" />
        </mxCell>
        <mxCell id="ePeYQSC2RN0oUBqZMHCl-9" value="Iniciar sesión en el sistema" style="ellipse;whiteSpace=wrap;html=1;" vertex="1" parent="1">
          <mxGeometry x="245" y="-650" width="120" height="80" as="geometry" />
        </mxCell>
        <mxCell id="ePeYQSC2RN0oUBqZMHCl-10" value="Acceso a su información personal." style="ellipse;whiteSpace=wrap;html=1;" vertex="1" parent="1">
          <mxGeometry x="248" y="-550" width="122" height="80" as="geometry" />
        </mxCell>
        <mxCell id="ePeYQSC2RN0oUBqZMHCl-16" value="Editar la informacion personal" style="ellipse;whiteSpace=wrap;html=1;" vertex="1" parent="1">
          <mxGeometry x="460" y="-550" width="120" height="80" as="geometry" />
        </mxCell>
        <mxCell id="ePeYQSC2RN0oUBqZMHCl-17" value="&amp;lt;&amp;lt;Extend&amp;gt;&amp;gt;" style="text;html=1;align=center;verticalAlign=middle;whiteSpace=wrap;rounded=0;" vertex="1" parent="1">
          <mxGeometry x="383.5" y="-525" width="60" height="30" as="geometry" />
        </mxCell>
      </root>
    </mxGraphModel>
  </diagram>
</mxfile>
